<svg xmlns="http://www.w3.org/2000/svg" width="512" height="512" viewBox="0 0 512 512" version="1.1"><path d="M 253.004 79.250 C 253.007 79.938, 251.258 85, 249.119 90.500 C 246.980 96, 244.537 102.750, 243.691 105.500 C 242.846 108.250, 240.740 114.325, 239.013 119 C 237.286 123.675, 234.360 131.861, 232.511 137.191 C 230.662 142.520, 227.453 151.070, 225.381 156.191 C 223.308 161.311, 219.520 171.777, 216.961 179.448 C 214.403 187.120, 211.791 193.570, 211.155 193.782 C 210.048 194.151, 209.798 191.959, 209.509 179.352 C 209.456 177.070, 208.921 174.595, 208.318 173.852 C 207.716 173.108, 206.919 169.575, 206.548 166 C 206.176 162.425, 205.475 157.025, 204.988 154 C 204.502 150.975, 203.604 144.900, 202.993 140.500 C 200.140 119.968, 198.485 110.451, 196.853 105.189 C 195.857 101.976, 196.045 101.633, 203.155 93.689 C 207.187 89.185, 211.283 84.907, 212.259 84.182 C 213.235 83.456, 213.774 82.444, 213.458 81.932 C 212.745 80.778, 130 80.659, 130 81.811 C 130 83.531, 143.677 96.317, 144.785 95.633 C 146.194 94.762, 151.683 98.039, 153.030 100.557 C 154.561 103.416, 153.706 104.831, 151.536 103.030 C 149.913 101.683, 149.752 101.894, 148.678 106.769 C 148.209 108.894, 149.444 122.638, 151.978 143.500 C 152.579 148.450, 153.532 156.325, 154.096 161 C 155.609 173.537, 156.723 182.464, 157.965 192 C 158.574 196.675, 159.533 204.325, 160.097 209 C 160.661 213.675, 161.517 220.650, 162 224.500 C 162.483 228.350, 163.383 235.550, 164 240.500 C 164.617 245.450, 165.557 252.875, 166.088 257 C 166.620 261.125, 167.492 268.100, 168.027 272.500 C 168.562 276.900, 169.464 284.100, 170.031 288.500 C 170.598 292.900, 171.498 299.988, 172.031 304.250 C 172.564 308.512, 173.450 315.600, 174 320 C 174.550 324.400, 175.450 331.600, 176 336 C 177.801 350.409, 180.550 371.722, 181.934 382 C 182.489 386.125, 183.408 393.100, 183.977 397.500 C 184.545 401.900, 185.460 408.650, 186.009 412.500 C 186.558 416.350, 187.418 423.775, 187.920 429 C 189.111 441.399, 189.810 444, 191.948 444 C 193.089 444, 194.052 442.720, 194.770 440.250 C 195.370 438.188, 196.657 433.800, 197.631 430.500 C 198.604 427.200, 199.528 423.740, 199.684 422.812 C 199.841 421.884, 201.481 416.484, 203.330 410.812 C 206.208 401.984, 207.319 398.332, 209.587 390.250 C 210.003 388.766, 212 388.559, 212 390 C 212 392.340, 215.084 390.734, 216.321 387.750 C 219.357 380.428, 219.152 375.703, 215.965 379.542 C 213.171 382.909, 213.251 379.032, 216.163 370 C 217.848 364.775, 219.625 359.719, 220.113 358.764 C 220.601 357.809, 221 356.340, 221 355.500 C 221 354.660, 221.404 353.191, 221.897 352.236 C 222.391 351.281, 223.787 347.125, 225 343 C 226.213 338.875, 227.609 334.719, 228.103 333.764 C 228.596 332.809, 229 331.148, 229 330.073 C 229 328.998, 229.450 327.840, 230 327.500 C 230.550 327.160, 231 325.585, 231 324 C 231 320.739, 232.705 319.067, 233.614 321.437 C 234.668 324.184, 236.734 323.121, 238.391 318.980 C 240.435 313.872, 240.458 314, 237.500 314 C 235.591 314, 235 314.520, 235 316.200 C 235 317.911, 234.733 318.133, 233.800 317.200 C 232.867 316.267, 232.867 315.733, 233.800 314.800 C 234.460 314.140, 235 312.592, 235 311.359 C 235 310.126, 235.450 308.840, 236 308.500 C 236.550 308.160, 237 306.810, 237 305.500 C 237 304.190, 237.450 302.840, 238 302.500 C 238.550 302.160, 239 300.585, 239 299 C 239 297.415, 239.450 295.840, 240 295.500 C 240.550 295.160, 241 293.810, 241 292.500 C 241 291.190, 241.450 289.840, 242 289.500 C 242.550 289.160, 243 287.810, 243 286.500 C 243 285.190, 243.450 283.840, 244 283.500 C 244.550 283.160, 245 281.585, 245 280 C 245 278.415, 245.450 276.840, 246 276.500 C 246.550 276.160, 247 275.002, 247 273.927 C 247 272.852, 247.397 271.191, 247.883 270.236 C 249.389 267.277, 250.813 263.657, 252.008 259.750 C 253.195 255.871, 254.989 254.678, 255.015 257.750 C 255.032 259.716, 256.986 265.467, 258.668 268.500 C 259.278 269.600, 260.531 273.425, 261.453 277 C 264.518 288.890, 265.225 291.480, 266.097 294 C 266.573 295.375, 267.604 298.975, 268.388 302 C 269.172 305.025, 270.129 308.288, 270.514 309.250 C 271.048 310.584, 270.714 311, 269.107 311 C 266.766 311, 266.474 312.148, 268.061 315.114 C 268.716 316.338, 269.768 316.893, 270.811 316.564 C 272.457 316.046, 273.732 319.183, 278.101 334.500 C 278.571 336.150, 279.806 340.200, 280.844 343.500 C 281.883 346.800, 283.303 351.525, 284 354 C 284.697 356.475, 286.045 360.975, 286.995 364 C 287.945 367.025, 289.734 372.875, 290.970 377 C 292.207 381.125, 293.624 385.544, 294.120 386.821 C 294.912 388.860, 294.777 389.064, 293.011 388.503 C 291.369 387.982, 291 388.316, 291 390.322 C 291 392.778, 294.904 398.612, 294.967 396.250 C 294.985 395.563, 295.477 395, 296.059 395 C 296.641 395, 296.840 395.449, 296.501 395.998 C 296.162 396.547, 296.585 397.997, 297.442 399.221 C 298.299 400.444, 299 402.443, 299 403.663 C 299 404.884, 299.450 406.160, 300 406.500 C 300.550 406.840, 301 408.190, 301 409.500 C 301 410.810, 301.450 412.160, 302 412.500 C 302.550 412.840, 303 414.126, 303 415.359 C 303 416.592, 303.378 418.027, 303.839 418.550 C 304.300 419.072, 305.260 422.200, 305.972 425.500 C 307.873 434.311, 309.893 441.295, 311.034 443 C 311.902 444.297, 312.242 444.233, 313.541 442.529 C 314.368 441.444, 314.793 439.903, 314.486 439.104 C 313.960 437.733, 315.025 428.723, 317.039 417.500 C 317.533 414.750, 318.494 409.350, 319.174 405.500 C 319.855 401.650, 320.488 398.163, 320.581 397.750 C 320.674 397.337, 320.806 395.200, 320.875 393 C 320.961 390.242, 321.447 389, 322.441 389 C 324.625 389, 325.151 387.425, 323.891 384.660 C 322.766 382.191, 323.138 377.322, 325.927 358 C 326.443 354.425, 327.376 347.900, 328 343.500 C 328.624 339.100, 329.557 332.575, 330.073 329 C 330.589 325.425, 331.472 319.125, 332.036 315 C 332.600 310.875, 333.497 304.462, 334.030 300.750 C 335.129 293.104, 336.549 283.164, 337.961 273.250 C 338.490 269.538, 339.359 263.575, 339.894 260 C 340.428 256.425, 341.376 249.900, 342 245.500 C 342.624 241.100, 343.524 234.800, 344 231.500 C 344.476 228.200, 345.376 221.900, 346 217.500 C 346.624 213.100, 347.524 206.800, 348 203.500 C 349.856 190.624, 351.189 181.219, 352.075 174.750 C 352.584 171.037, 353.450 164.850, 354 161 C 354.550 157.150, 355.465 150.738, 356.033 146.750 C 358.411 130.070, 358.840 127.084, 360.090 118.500 C 360.811 113.550, 361.569 110.287, 361.774 111.250 C 361.979 112.213, 362.564 113, 363.073 113 C 364.323 113, 364.260 108.278, 363 107.500 C 362.450 107.160, 362 105.609, 362 104.054 C 362 101.865, 364.026 99.086, 370.969 91.749 C 375.902 86.537, 379.652 81.986, 379.303 81.636 C 378.431 80.765, 295.508 80.826, 294.635 81.698 C 294.251 82.082, 297.807 86.286, 302.538 91.038 C 311.023 99.562, 311.127 99.727, 310.160 103.090 L 309.180 106.500 309.090 103.167 C 308.929 97.199, 306.546 100.145, 305.926 107.080 C 305.610 110.611, 304.795 115.165, 304.114 117.201 C 303.222 119.870, 303.173 121.455, 303.939 122.885 C 305.313 125.453, 305.309 131.691, 303.932 132.542 C 303.337 132.910, 302.974 135.559, 303.111 138.533 C 303.258 141.696, 302.847 144.480, 302.101 145.379 C 301.243 146.412, 301.043 148.580, 301.472 152.197 C 301.818 155.114, 301.614 159.750, 301.019 162.500 C 299.847 167.914, 298.414 177.831, 297.369 187.750 C 297.007 191.188, 296.343 194, 295.894 194 C 295.445 194, 294.418 191.863, 293.611 189.250 C 292.233 184.784, 277.610 141.913, 266.069 108.500 C 263.219 100.250, 259.690 90.013, 258.226 85.750 C 256.762 81.487, 254.987 78, 254.282 78 C 253.577 78, 253.002 78.563, 253.004 79.250 M 157.750 90.692 C 154.797 91.165, 154.199 92.409, 156.304 93.700 C 159.580 95.710, 161.040 102.736, 165.516 138.038 C 171.191 182.801, 172.717 195.082, 173.960 206 C 174.493 210.675, 175.395 218.213, 175.964 222.750 C 176.534 227.287, 177.450 234.600, 178 239 C 178.550 243.400, 179.450 250.600, 180 255 C 180.550 259.400, 181.466 266.712, 182.036 271.250 C 182.606 275.788, 183.505 283.100, 184.033 287.500 C 184.562 291.900, 185.461 299.100, 186.031 303.500 C 186.601 307.900, 187.529 315.325, 188.094 320 C 188.659 324.675, 189.517 331.650, 190 335.500 C 190.483 339.350, 191.339 346.325, 191.903 351 C 192.467 355.675, 193.416 363.325, 194.014 368 C 195.133 376.760, 196.797 393.207, 197.101 398.500 C 197.258 401.249, 197.311 401.291, 197.732 399 C 197.985 397.625, 198.517 396.050, 198.916 395.500 C 199.314 394.950, 200.246 392.475, 200.986 390 C 201.727 387.525, 205.809 374.925, 210.058 362 C 214.307 349.075, 218.756 335.350, 219.945 331.500 C 223.443 320.171, 233.919 287.431, 238.023 275 C 240.111 268.675, 242.359 261.014, 243.019 257.975 C 244.279 252.165, 245.890 249.558, 249.973 246.719 C 252.614 244.882, 260.562 244.282, 259.500 246 C 259.160 246.550, 259.584 247, 260.441 247 C 261.298 247, 262 247.525, 262 248.167 C 262 248.808, 262.285 249.049, 262.633 248.701 C 263.936 247.398, 271 259.844, 271 263.442 C 271 264.247, 271.425 265.940, 271.944 267.203 C 272.464 268.466, 273.873 272.875, 275.077 277 C 276.280 281.125, 277.933 286.525, 278.751 289 C 279.568 291.475, 280.609 294.850, 281.062 296.500 C 283.236 304.405, 283.990 307.002, 286 313.500 C 287.191 317.350, 288.541 321.850, 289 323.500 C 289.960 326.949, 294.849 343.227, 298.011 353.500 C 299.196 357.350, 300.538 361.850, 300.994 363.500 C 301.450 365.150, 302.915 370.325, 304.250 375 C 307.777 387.357, 308.998 392.677, 309.015 395.764 C 309.024 397.269, 309.405 399.090, 309.862 399.810 C 310.373 400.617, 311.161 397.541, 311.911 391.810 C 312.582 386.690, 313.992 376.875, 315.047 370 C 316.101 363.125, 320.819 330.275, 325.531 297 C 341.145 186.737, 351.029 117.583, 352.113 111 C 353.462 102.816, 355.631 95.150, 357.097 93.383 C 358.936 91.168, 356.736 90.935, 336.661 91.227 C 317.885 91.500, 317.883 91.500, 319.762 93.515 C 324.224 98.302, 324.328 100.987, 320.932 123.750 C 320.420 127.188, 319.586 132.813, 319.080 136.250 C 318.574 139.688, 317.638 145.875, 317 150 C 315.462 159.943, 314.278 167.977, 313.086 176.545 C 312.547 180.420, 311.632 184.837, 311.053 186.360 C 310.474 187.884, 309.964 190.563, 309.921 192.315 C 309.878 194.067, 309.615 194.938, 309.338 194.250 C 308.332 191.757, 307 193.083, 307 196.577 C 307 200.726, 302.538 206, 299.027 206 C 293.617 206, 286 198.988, 286 194.007 C 286 192.445, 285.618 191.017, 285.152 190.833 C 282.940 189.964, 276.785 174.257, 266.409 143 C 264.492 137.225, 262.553 131.600, 262.100 130.500 C 259.410 123.965, 256.041 109.884, 255.999 105 C 255.979 102.641, 255.688 101.945, 255.106 102.863 C 254.377 104.014, 254.167 104.014, 253.760 102.863 C 253.494 102.113, 252.932 106.450, 252.511 112.500 C 251.714 123.936, 250.911 126.694, 238.544 160.500 C 236.532 166, 233.714 173.875, 232.281 178 C 229.593 185.737, 227.855 189.049, 224.671 192.500 C 223.656 193.600, 222.011 196.079, 221.015 198.010 C 218.985 201.945, 212.401 206, 208.042 206 C 206.383 206, 204.215 204.943, 202.636 203.364 C 200.319 201.047, 200 199.926, 200 194.113 C 200 190.476, 199.330 184.349, 198.511 180.500 C 197.692 176.650, 194.955 159.325, 192.430 142 C 187.484 108.064, 187.085 97.773, 190.566 93.927 C 191.947 92.401, 192.008 91.957, 190.886 91.599 C 188.832 90.944, 160.945 90.181, 157.750 90.692 M 154.638 108.500 C 154.955 109.325, 155.391 110, 155.607 110 C 155.823 110, 156 109.325, 156 108.500 C 156 107.675, 155.564 107, 155.031 107 C 154.499 107, 154.322 107.675, 154.638 108.500 M 287 195.500 C 287 195.775, 287.225 196, 287.500 196 C 287.775 196, 288 195.775, 288 195.500 C 288 195.225, 287.775 195, 287.500 195 C 287.225 195, 287 195.225, 287 195.500 M 211.479 383.202 C 210.627 385.411, 211.865 387.535, 213.216 386.184 C 213.871 385.529, 213.855 384.566, 213.171 383.346 C 212.216 381.644, 212.083 381.633, 211.479 383.202" stroke="none" fill="#dfbb5a" fill-rule="evenodd"/><path d="M 252.250 77.964 C 251.563 79.069, 251 80.660, 251 81.500 C 251 82.340, 250.586 83.809, 250.080 84.764 C 248.239 88.238, 244.751 98.084, 245.201 98.534 C 245.734 99.068, 253 81.083, 253 79.231 C 253 78.554, 253.564 78, 254.253 78 C 254.943 78, 256.555 81.037, 257.836 84.750 C 263.741 101.862, 265.308 106.025, 265.699 105.635 C 266.112 105.221, 258.495 80.926, 257.034 78 C 255.901 75.730, 253.650 75.713, 252.250 77.964 M 129 82.522 C 129 83.908, 130.575 89.074, 132.500 94 C 134.425 98.926, 136 103.858, 136 104.959 C 136 106.059, 138.638 109.871, 141.862 113.429 C 147.523 119.675, 147.745 120.130, 148.349 126.698 C 149.043 134.250, 150.861 149.383, 153.969 173.500 C 154.536 177.900, 155.462 185.325, 156.027 190 C 156.591 194.675, 157.491 201.988, 158.027 206.250 C 158.562 210.513, 159.450 217.600, 160 222 C 160.550 226.400, 161.476 233.713, 162.059 238.250 C 164.578 257.878, 165.093 261.930, 166.030 269.500 C 166.575 273.900, 167.453 280.875, 167.981 285 C 168.510 289.125, 169.432 296.325, 170.030 301 C 170.628 305.675, 171.528 312.650, 172.030 316.500 C 172.532 320.350, 173.405 327.213, 173.971 331.750 C 174.537 336.288, 175.450 343.600, 176 348 C 176.550 352.400, 177.450 359.600, 178 364 C 178.550 368.400, 179.482 375.713, 180.071 380.250 C 181.194 388.900, 182.184 396.831, 183.909 411 C 184.478 415.675, 185.437 423.325, 186.040 428 C 186.643 432.675, 187.376 438.415, 187.670 440.756 C 188.337 446.085, 191.337 447.320, 195.833 444.119 C 198.116 442.493, 199.341 440.134, 201.465 433.271 C 202.958 428.447, 204.589 423.719, 205.090 422.764 C 205.590 421.809, 206 420.148, 206 419.073 C 206 417.998, 206.450 416.840, 207 416.500 C 207.550 416.160, 208 414.810, 208 413.500 C 208 412.190, 208.450 410.840, 209 410.500 C 209.550 410.160, 210 408.810, 210 407.500 C 210 406.190, 210.450 404.840, 211 404.500 C 211.550 404.160, 212 402.810, 212 401.500 C 212 400.190, 212.450 398.840, 213 398.500 C 213.550 398.160, 214 396.810, 214 395.500 C 214 394.190, 214.450 392.840, 215 392.500 C 216.762 391.411, 216.069 390.169, 214 390.710 C 212.882 391.003, 212 390.741, 212 390.117 C 212 388.590, 210.022 388.699, 209.587 390.250 C 207.319 398.332, 206.208 401.984, 203.330 410.812 C 201.481 416.484, 199.841 421.884, 199.684 422.812 C 199.528 423.740, 198.604 427.200, 197.631 430.500 C 196.657 433.800, 195.370 438.188, 194.770 440.250 C 194.052 442.720, 193.089 444, 191.948 444 C 189.810 444, 189.111 441.399, 187.920 429 C 187.418 423.775, 186.558 416.350, 186.009 412.500 C 185.460 408.650, 184.545 401.900, 183.977 397.500 C 183.408 393.100, 182.492 386.125, 181.940 382 C 181.389 377.875, 180.475 370.900, 179.910 366.500 C 179.345 362.100, 178.472 355.350, 177.970 351.500 C 177.468 347.650, 176.595 340.788, 176.029 336.250 C 175.064 328.511, 174.417 323.334, 172.031 304.250 C 171.498 299.988, 170.598 292.900, 170.031 288.500 C 169.464 284.100, 168.562 276.900, 168.027 272.500 C 167.492 268.100, 166.620 261.125, 166.088 257 C 165.557 252.875, 164.617 245.450, 164 240.500 C 163.383 235.550, 162.483 228.350, 162 224.500 C 161.517 220.650, 160.661 213.675, 160.097 209 C 159.533 204.325, 158.574 196.675, 157.965 192 C 156.723 182.464, 155.609 173.537, 154.096 161 C 153.532 156.325, 152.579 148.450, 151.978 143.500 C 149.444 122.638, 148.209 108.894, 148.678 106.769 C 149.752 101.894, 149.913 101.683, 151.536 103.030 C 153.706 104.831, 154.561 103.416, 153.030 100.557 C 151.683 98.039, 146.194 94.762, 144.785 95.633 C 143.700 96.303, 130 83.540, 130 81.859 C 130 81.439, 132.813 80.936, 136.250 80.740 L 142.500 80.385 135.750 80.193 C 129.150 80.004, 129 80.056, 129 82.522 M 167.784 80.738 C 170.689 80.941, 175.189 80.939, 177.784 80.734 C 180.378 80.528, 178 80.363, 172.500 80.365 C 167 80.368, 164.878 80.536, 167.784 80.738 M 209 80.685 C 214.159 81.537, 214.676 82.001, 212.500 83.827 C 211.400 84.750, 207.198 89.189, 203.163 93.691 C 196.044 101.634, 195.857 101.975, 196.853 105.189 C 198.485 110.451, 200.140 119.968, 202.993 140.500 C 203.604 144.900, 204.502 150.975, 204.988 154 C 205.475 157.025, 206.182 162.425, 206.560 166 C 206.938 169.575, 207.867 173.388, 208.624 174.473 C 209.871 176.260, 210 175.975, 210 171.423 C 210 168.660, 209.588 165.973, 209.084 165.450 C 208.581 164.928, 207.900 161.575, 207.572 158 C 206.107 142.054, 205.760 139.440, 204.981 138.490 C 204.526 137.934, 204.022 134.263, 203.861 130.333 L 203.569 123.186 210.927 115.440 L 218.284 107.695 217.667 97.597 C 217.327 92.044, 216.754 85.813, 216.394 83.750 C 215.743 80.026, 215.706 80.001, 211.119 80.136 C 208.579 80.211, 207.625 80.458, 209 80.685 M 293.531 81.250 C 293.307 81.938, 292.903 87, 292.632 92.500 C 292.361 98, 291.855 103.625, 291.507 105 C 291.002 106.999, 291.758 108.531, 295.275 112.640 C 297.694 115.468, 300.680 119.068, 301.911 120.640 C 303.142 122.213, 303.858 122.929, 303.503 122.230 C 303.148 121.532, 303.419 119.282, 304.105 117.230 C 304.791 115.179, 305.610 110.611, 305.926 107.080 C 306.546 100.145, 308.929 97.199, 309.090 103.167 L 309.180 106.500 310.160 103.090 C 311.127 99.724, 311.027 99.567, 302.382 90.881 C 296.352 84.823, 294.071 81.920, 295.062 81.563 C 295.853 81.278, 299.650 80.898, 303.500 80.718 L 310.500 80.392 302.219 80.196 C 296.333 80.057, 293.820 80.362, 293.531 81.250 M 319.250 80.745 C 324.063 80.928, 331.938 80.928, 336.750 80.745 C 341.563 80.561, 337.625 80.411, 328 80.411 C 318.375 80.411, 314.438 80.561, 319.250 80.745 M 377.845 81.066 C 380.102 81.970, 379.847 82.368, 371.095 91.616 C 364.045 99.066, 362 101.862, 362 104.054 C 362 105.609, 362.450 107.160, 363 107.500 C 364.260 108.278, 364.323 113, 363.073 113 C 362.564 113, 361.979 112.213, 361.774 111.250 C 361.569 110.287, 360.811 113.550, 360.090 118.500 C 358.840 127.084, 358.411 130.070, 356.033 146.750 C 355.465 150.738, 354.550 157.150, 354 161 C 353.450 164.850, 352.584 171.037, 352.075 174.750 C 351.189 181.219, 349.856 190.624, 348 203.500 C 347.524 206.800, 346.624 213.100, 346 217.500 C 345.376 221.900, 344.476 228.200, 344 231.500 C 343.524 234.800, 342.624 241.100, 342 245.500 C 341.376 249.900, 340.428 256.425, 339.894 260 C 339.359 263.575, 338.490 269.538, 337.961 273.250 C 336.549 283.164, 335.129 293.104, 334.030 300.750 C 333.497 304.462, 332.600 310.875, 332.036 315 C 331.472 319.125, 330.589 325.425, 330.073 329 C 329.557 332.575, 328.624 339.100, 328 343.500 C 327.376 347.900, 326.445 354.425, 325.932 358 C 323.428 375.447, 322.889 381.392, 323.591 383.837 C 324.277 386.227, 324.439 385.987, 325.168 381.500 C 325.999 376.390, 327.425 366.588, 329.022 355 C 329.515 351.425, 330.373 345.350, 330.928 341.500 C 331.484 337.650, 332.400 331.125, 332.964 327 C 333.528 322.875, 334.458 316.350, 335.031 312.500 C 335.604 308.650, 336.504 302.350, 337.031 298.500 C 337.558 294.650, 338.411 288.575, 338.927 285 C 339.443 281.425, 340.376 274.900, 341 270.500 C 341.624 266.100, 342.572 259.575, 343.106 256 C 343.641 252.425, 344.493 246.575, 345 243 C 345.507 239.425, 346.391 233.350, 346.964 229.500 C 347.538 225.650, 348.454 219.125, 349 215 C 349.546 210.875, 350.415 204.575, 350.929 201 C 351.444 197.425, 352.376 190.900, 353 186.500 C 353.624 182.100, 354.557 175.575, 355.073 172 C 355.588 168.425, 356.710 160.100, 357.566 153.500 C 361.971 119.509, 361.495 121.266, 368.211 114.186 C 373.685 108.413, 375.410 104.928, 380.018 90.336 C 382.615 82.113, 382.253 79.973, 378.281 80.063 C 375.539 80.126, 375.533 80.140, 377.845 81.066 M 157.750 90.692 C 154.797 91.165, 154.199 92.409, 156.304 93.700 C 159.580 95.710, 161.040 102.736, 165.516 138.038 C 171.191 182.801, 172.717 195.082, 173.960 206 C 174.493 210.675, 175.395 218.213, 175.964 222.750 C 176.534 227.287, 177.450 234.600, 178 239 C 178.550 243.400, 179.450 250.600, 180 255 C 180.550 259.400, 181.466 266.712, 182.036 271.250 C 182.606 275.788, 183.505 283.100, 184.033 287.500 C 184.562 291.900, 185.461 299.100, 186.031 303.500 C 186.601 307.900, 187.529 315.325, 188.094 320 C 188.659 324.675, 189.517 331.650, 190 335.500 C 190.483 339.350, 191.339 346.325, 191.903 351 C 192.467 355.675, 193.416 363.325, 194.014 368 C 195.133 376.760, 196.797 393.207, 197.101 398.500 C 197.258 401.249, 197.311 401.291, 197.732 399 C 197.985 397.625, 198.517 396.050, 198.916 395.500 C 199.314 394.950, 200.246 392.475, 200.986 390 C 201.727 387.525, 205.809 374.925, 210.058 362 C 214.307 349.075, 218.756 335.350, 219.945 331.500 C 223.443 320.171, 233.919 287.431, 238.023 275 C 240.111 268.675, 242.359 261.014, 243.019 257.975 C 244.279 252.165, 245.890 249.558, 249.973 246.719 C 252.614 244.882, 260.562 244.282, 259.500 246 C 259.160 246.550, 259.584 247, 260.441 247 C 261.298 247, 262 247.525, 262 248.167 C 262 248.808, 262.285 249.049, 262.633 248.701 C 263.936 247.398, 271 259.844, 271 263.442 C 271 264.247, 271.425 265.940, 271.944 267.203 C 272.464 268.466, 273.873 272.875, 275.077 277 C 276.280 281.125, 277.933 286.525, 278.751 289 C 279.568 291.475, 280.609 294.850, 281.062 296.500 C 283.236 304.405, 283.990 307.002, 286 313.500 C 287.191 317.350, 288.541 321.850, 289 323.500 C 289.960 326.949, 294.849 343.227, 298.011 353.500 C 299.196 357.350, 300.538 361.850, 300.994 363.500 C 301.450 365.150, 302.915 370.325, 304.250 375 C 307.777 387.357, 308.998 392.677, 309.015 395.764 C 309.024 397.269, 309.405 399.090, 309.862 399.810 C 310.373 400.617, 311.161 397.541, 311.911 391.810 C 312.582 386.690, 313.992 376.875, 315.047 370 C 316.101 363.125, 320.819 330.275, 325.531 297 C 341.145 186.737, 351.029 117.583, 352.113 111 C 353.462 102.816, 355.631 95.150, 357.097 93.383 C 358.936 91.168, 356.736 90.935, 336.661 91.227 C 317.885 91.500, 317.883 91.500, 319.762 93.515 C 324.224 98.302, 324.328 100.987, 320.932 123.750 C 320.420 127.188, 319.586 132.813, 319.080 136.250 C 318.574 139.688, 317.638 145.875, 317 150 C 315.462 159.943, 314.278 167.977, 313.086 176.545 C 312.547 180.420, 311.632 184.837, 311.053 186.360 C 310.474 187.884, 309.964 190.563, 309.921 192.315 C 309.878 194.067, 309.615 194.938, 309.338 194.250 C 308.332 191.757, 307 193.083, 307 196.577 C 307 200.726, 302.538 206, 299.027 206 C 293.617 206, 286 198.988, 286 194.007 C 286 192.445, 285.618 191.017, 285.152 190.833 C 282.940 189.964, 276.785 174.257, 266.409 143 C 264.492 137.225, 262.553 131.600, 262.100 130.500 C 259.410 123.965, 256.041 109.884, 255.999 105 C 255.979 102.641, 255.688 101.945, 255.106 102.863 C 254.377 104.014, 254.167 104.014, 253.760 102.863 C 253.494 102.113, 252.932 106.450, 252.511 112.500 C 251.714 123.936, 250.911 126.694, 238.544 160.500 C 236.532 166, 233.714 173.875, 232.281 178 C 229.593 185.737, 227.855 189.049, 224.671 192.500 C 223.656 193.600, 222.011 196.079, 221.015 198.010 C 218.985 201.945, 212.401 206, 208.042 206 C 206.383 206, 204.215 204.943, 202.636 203.364 C 200.319 201.047, 200 199.926, 200 194.113 C 200 190.476, 199.330 184.349, 198.511 180.500 C 197.692 176.650, 194.955 159.325, 192.430 142 C 187.484 108.064, 187.085 97.773, 190.566 93.927 C 191.947 92.401, 192.008 91.957, 190.886 91.599 C 188.832 90.944, 160.945 90.181, 157.750 90.692 M 243.464 102.771 C 243.067 104.570, 242.350 106.284, 241.871 106.580 C 241.392 106.876, 241 107.998, 241 109.073 C 241 110.148, 240.603 111.809, 240.117 112.764 C 238.626 115.694, 237.191 119.315, 235.862 123.500 C 235.163 125.700, 234.234 127.928, 233.796 128.450 C 233.358 128.973, 233 130.216, 233 131.214 C 233 132.211, 232.603 133.809, 232.117 134.764 C 230.626 137.694, 229.191 141.315, 227.862 145.500 C 227.163 147.700, 226.234 149.927, 225.796 150.450 C 225.358 150.972, 225 152.216, 225 153.214 C 225 154.211, 224.603 155.809, 224.117 156.764 C 222.937 159.083, 221.424 162.839, 220.195 166.500 C 219.641 168.150, 218.847 170.400, 218.430 171.500 C 218.013 172.600, 216.940 175.494, 216.044 177.931 C 214.033 183.405, 212.467 184.085, 211.620 179.852 C 211.194 177.719, 210.639 176.961, 209.984 177.616 C 208.684 178.916, 209.936 194.188, 211.305 193.732 C 211.858 193.547, 214.403 187.120, 216.961 179.448 C 219.520 171.777, 223.308 161.311, 225.381 156.191 C 227.453 151.070, 230.662 142.520, 232.511 137.191 C 234.360 131.861, 237.281 123.675, 239.003 119 C 244.332 104.524, 245.139 101.909, 244.655 100.685 C 244.398 100.033, 243.862 100.972, 243.464 102.771 M 154.638 108.500 C 154.955 109.325, 155.391 110, 155.607 110 C 155.823 110, 156 109.325, 156 108.500 C 156 107.675, 155.564 107, 155.031 107 C 154.499 107, 154.322 107.675, 154.638 108.500 M 266 107.407 C 266 107.814, 267.099 111.377, 268.443 115.324 C 291.851 184.094, 293 187.325, 293 184.385 C 293 182.623, 267.443 108.110, 266.523 107.189 C 266.235 106.902, 266 107, 266 107.407 M 304.272 128 C 304.272 130.475, 304.467 131.488, 304.706 130.250 C 304.944 129.012, 304.944 126.987, 304.706 125.750 C 304.467 124.513, 304.272 125.525, 304.272 128 M 302 140 C 302 142.933, 302.319 145.014, 302.709 144.624 C 303.424 143.910, 303.171 135.859, 302.409 135.083 C 302.184 134.854, 302 137.067, 302 140 M 298.708 163.782 C 297.741 170.777, 296.962 177.963, 296.976 179.750 C 296.990 181.723, 296.191 183.809, 294.942 185.058 C 293.133 186.867, 293.021 187.533, 294.019 190.558 C 294.644 192.451, 295.505 194, 295.933 194 C 296.361 194, 297.010 191.188, 297.376 187.750 C 298.204 179.979, 299.476 170.828, 301.128 160.749 C 301.946 155.757, 302.054 152.654, 301.431 152.031 C 300.808 151.408, 299.839 155.590, 298.708 163.782 M 287 195.500 C 287 195.775, 287.225 196, 287.500 196 C 287.775 196, 288 195.775, 288 195.500 C 288 195.225, 287.775 195, 287.500 195 C 287.225 195, 287 195.225, 287 195.500 M 252.008 259.750 C 250.813 263.657, 249.389 267.277, 247.883 270.236 C 247.397 271.191, 247 272.852, 247 273.927 C 247 275.002, 246.550 276.160, 246 276.500 C 245.450 276.840, 245 278.415, 245 280 C 245 281.585, 244.550 283.160, 244 283.500 C 243.450 283.840, 243 285.190, 243 286.500 C 243 287.810, 242.550 289.160, 242 289.500 C 241.450 289.840, 241 291.190, 241 292.500 C 241 293.810, 240.550 295.160, 240 295.500 C 239.450 295.840, 239 297.415, 239 299 C 239 300.585, 238.550 302.160, 238 302.500 C 237.450 302.840, 237 304.190, 237 305.500 C 237 306.810, 236.550 308.160, 236 308.500 C 235.450 308.840, 235 310.126, 235 311.359 C 235 312.592, 234.460 314.140, 233.800 314.800 C 232.867 315.733, 232.867 316.267, 233.800 317.200 C 234.733 318.133, 235 317.911, 235 316.200 C 235 314.550, 235.595 314, 237.379 314 C 239.045 314, 240.081 313.176, 240.839 311.250 C 244.137 302.861, 253 274.613, 253 272.491 C 253 271.121, 253.450 270, 254 270 C 254.550 270, 255 270.879, 255 271.953 C 255 273.027, 255.407 274.940, 255.905 276.203 C 256.402 277.466, 258.692 284.575, 260.992 292 C 266.755 310.597, 266.930 311, 269.228 311 C 270.719 311, 271.040 310.564, 270.514 309.250 C 270.129 308.288, 269.172 305.025, 268.388 302 C 267.604 298.975, 266.573 295.375, 266.097 294 C 265.225 291.480, 264.518 288.890, 261.453 277 C 260.531 273.425, 259.278 269.600, 258.668 268.500 C 256.986 265.467, 255.032 259.716, 255.015 257.750 C 254.989 254.678, 253.195 255.871, 252.008 259.750 M 270.250 316.662 C 268.779 317.256, 268.638 319.331, 269.903 321.764 C 270.399 322.719, 271.350 325.525, 272.017 328 C 272.683 330.475, 273.575 333.400, 274 334.500 C 274.425 335.600, 275.325 338.525, 276 341 C 276.675 343.475, 277.575 346.400, 278 347.500 C 278.425 348.600, 279.317 351.525, 279.983 354 C 280.650 356.475, 281.601 359.281, 282.097 360.236 C 282.594 361.191, 283 362.885, 283 364 C 283 365.115, 283.406 366.809, 283.903 367.764 C 284.399 368.719, 285.343 371.525, 286 374 C 286.657 376.475, 287.601 379.281, 288.097 380.236 C 288.594 381.191, 289.007 382.766, 289.015 383.736 C 289.037 386.227, 290.147 387.620, 292.761 388.436 C 294.803 389.073, 294.934 388.917, 294.120 386.821 C 293.624 385.544, 292.207 381.125, 290.970 377 C 289.734 372.875, 287.945 367.025, 286.995 364 C 286.045 360.975, 284.697 356.475, 284 354 C 283.303 351.525, 281.883 346.800, 280.844 343.500 C 279.806 340.200, 278.571 336.150, 278.101 334.500 C 275.296 324.666, 272.432 316.020, 272 316.084 C 271.725 316.125, 270.938 316.385, 270.250 316.662 M 231.723 320.611 C 231.325 321.008, 231 322.582, 231 324.108 C 231 325.634, 230.550 327.160, 230 327.500 C 229.450 327.840, 229 328.998, 229 330.073 C 229 331.148, 228.596 332.809, 228.103 333.764 C 227.609 334.719, 226.213 338.875, 225 343 C 223.787 347.125, 222.391 351.281, 221.897 352.236 C 221.404 353.191, 221 354.660, 221 355.500 C 221 356.340, 220.601 357.809, 220.113 358.764 C 218.275 362.361, 213.154 379.441, 213.665 380.268 C 213.959 380.742, 215.026 380.382, 216.036 379.467 C 217.047 378.552, 218.352 378.100, 218.937 378.461 C 219.557 378.844, 220 378.254, 220 377.045 C 220 375.906, 220.404 374.191, 220.897 373.236 C 221.391 372.281, 222.787 368.125, 224 364 C 225.213 359.875, 226.609 355.719, 227.103 354.764 C 227.596 353.809, 228 352.148, 228 351.073 C 228 349.998, 228.450 348.840, 229 348.500 C 229.550 348.160, 230 346.810, 230 345.500 C 230 344.190, 230.450 342.840, 231 342.500 C 231.550 342.160, 232 340.810, 232 339.500 C 232 338.190, 232.450 336.840, 233 336.500 C 233.550 336.160, 234 335.002, 234 333.927 C 234 332.852, 234.390 331.191, 234.866 330.236 C 236.387 327.186, 237.982 321.648, 237.483 321.149 C 237.217 320.884, 237 321.192, 237 321.833 C 237 323.508, 234.919 323.271, 233.583 321.444 C 232.957 320.588, 232.120 320.213, 231.723 320.611 M 218 380.500 C 218 380.775, 218.225 381, 218.500 381 C 218.775 381, 219 380.775, 219 380.500 C 219 380.225, 218.775 380, 218.500 380 C 218.225 380, 218 380.225, 218 380.500 M 211.479 383.202 C 210.627 385.411, 211.865 387.535, 213.216 386.184 C 213.871 385.529, 213.855 384.566, 213.171 383.346 C 212.216 381.644, 212.083 381.633, 211.479 383.202 M 322.750 388.689 C 321.488 389.019, 320.965 390.242, 320.875 393.073 C 320.806 395.233, 320.674 397.337, 320.581 397.750 C 320.488 398.163, 319.855 401.650, 319.174 405.500 C 318.494 409.350, 317.533 414.750, 317.039 417.500 C 315.025 428.723, 313.960 437.733, 314.486 439.104 C 314.793 439.903, 314.368 441.444, 313.541 442.529 C 312.242 444.233, 311.902 444.297, 311.034 443 C 309.893 441.295, 307.873 434.311, 305.972 425.500 C 305.260 422.200, 304.300 419.072, 303.839 418.550 C 303.378 418.027, 303 416.592, 303 415.359 C 303 414.126, 302.550 412.840, 302 412.500 C 301.450 412.160, 301 410.810, 301 409.500 C 301 408.190, 300.550 406.840, 300 406.500 C 299.450 406.160, 299 404.884, 299 403.663 C 299 402.443, 298.299 400.444, 297.442 399.221 C 296.585 397.997, 296.162 396.547, 296.501 395.998 C 296.840 395.449, 296.641 395, 296.059 395 C 295.477 395, 295 395.477, 295 396.059 C 295 396.641, 294.479 396.796, 293.842 396.403 C 293.019 395.894, 292.902 396.382, 293.436 398.094 C 293.849 399.417, 294.422 401.743, 294.709 403.262 C 294.996 404.781, 295.629 406.271, 296.115 406.571 C 296.602 406.872, 297 407.932, 297 408.927 C 297 409.921, 298.284 414.732, 299.854 419.618 C 301.424 424.503, 303.687 431.705, 304.884 435.622 C 306.080 439.539, 307.976 443.574, 309.098 444.589 C 310.957 446.271, 311.374 446.301, 313.818 444.933 C 316.024 443.698, 316.631 442.462, 317.236 437.966 C 317.640 434.960, 318.399 429.575, 318.923 426 C 320.199 417.280, 321.734 406.049, 322.837 397.362 C 323.336 393.436, 324.053 389.723, 324.431 389.112 C 324.809 388.500, 324.979 388.052, 324.809 388.116 C 324.639 388.180, 323.712 388.438, 322.750 388.689" stroke="none" fill="#30465a" fill-rule="evenodd"/></svg>