<?xml version="1.0" encoding="UTF-8"?>
<svg version="1.1" xmlns="http://www.w3.org/2000/svg" width="1024" height="1024">
<path d="M0 0 C51.48 0 102.96 0 156 0 C149.3982893 8.80228094 149.3982893 8.80228094 143.91796875 12.30859375 C136.52549399 17.65212665 127.20323575 24.66199832 125.62925911 34.26098442 C125.50761718 40.57027095 126.89286945 46.70178581 128.12109375 52.859375 C128.49046366 54.97615171 128.85240433 57.09423555 129.20767212 59.21342468 C129.99944453 63.90473389 130.82246608 68.58922591 131.66213989 73.27218628 C133.11510312 81.50956218 134.36138907 89.7716815 135.57397461 98.04711914 C135.68197171 98.78309196 135.78996882 99.51906479 135.90123856 100.27733982 C136.34467991 103.30146968 136.7873712 106.32570742 137.22870237 109.350146 C138.3574893 117.08096921 139.51629367 124.80720013 140.67862904 132.53303993 C141.26825254 136.45233703 141.8566954 140.37181142 142.4453125 144.29125977 C142.62120866 145.46212652 142.62120866 145.46212652 142.80065829 146.65664715 C143.76993361 153.10958738 144.73637174 159.56295047 145.70224845 166.01640016 C146.647043 172.32844065 147.59334875 178.64025325 148.54091179 184.95187873 C149.10114422 188.68357792 149.66084416 192.41535481 150.2191124 196.1473484 C150.83379565 200.25587584 151.45164345 204.36392118 152.06982422 208.47192383 C152.25159714 209.68966492 152.43337006 210.90740601 152.62065125 212.16204834 C152.78860703 213.27471573 152.95656281 214.38738312 153.12960815 215.5337677 C153.3468797 216.98138599 153.3468797 216.98138599 153.56854057 218.45824909 C153.94554276 220.67918946 154.41577485 222.8257298 155 225 C162.81421425 206.0549275 170.59760973 187.09872572 178.1875 168.0625 C185.68763472 149.25404425 193.24445391 130.46870592 200.8125 111.6875 C201.119706 110.92510262 201.426912 110.16270523 201.74342728 109.3772049 C204.57216252 102.3571479 207.40110358 95.33717388 210.23042297 88.31735229 C214.42639425 77.90650353 218.61980241 67.49462541 222.81171989 57.08214378 C224.68398734 52.43179235 226.55669918 47.78161986 228.4294405 43.13145924 C229.91725307 39.43702318 231.4048084 35.74248401 232.89175415 32.04769897 C234.27702374 28.60559678 235.66302656 25.16379073 237.04958153 21.72220612 C237.79492088 19.87163743 238.53948014 18.02075461 239.28401184 16.16986084 C241.46660467 10.75420161 243.66749799 5.35294202 246 0 C249.56845704 2.75850462 250.62535812 6.7460032 252.08984375 10.8359375 C252.38600586 11.64111816 252.68216797 12.44629883 252.98730469 13.27587891 C253.63492438 15.03911232 254.27879068 16.80372769 254.91940308 18.56951904 C256.31921023 22.42684562 257.73765307 26.27723435 259.15516663 30.12808228 C259.91526602 32.19317053 260.67447135 34.25858806 261.43284607 36.3243103 C265.85883029 48.36970967 270.39776049 60.37212109 274.9375 72.375 C275.79078126 74.63326634 276.64397116 76.8915672 277.49707031 79.14990234 C279.1856252 83.61935733 280.87476208 88.08859161 282.56445312 92.55761719 C284.86193953 98.63428905 287.15783056 104.71156239 289.453125 110.7890625 C291.90317971 117.2762227 294.35368254 123.76321303 296.80500793 130.24989319 C299.6305641 137.72689501 302.45491444 145.20434798 305.27630615 152.68292236 C306.73973577 156.56188169 308.20367195 160.44064973 309.66766357 164.31939697 C310.38390763 166.21738515 311.09993469 168.11545522 311.81573486 170.01361084 C315.49898781 179.78008656 319.19795945 189.53976652 322.95703125 199.27734375 C323.42110886 200.48160255 323.42110886 200.48160255 323.89456177 201.71018982 C325.33790702 205.45531833 326.78574114 209.19855937 328.24316406 212.93823242 C328.74695407 214.24259497 329.25054741 215.5470335 329.75390625 216.8515625 C330.19033447 217.97385254 330.6267627 219.09614258 331.07641602 220.25244141 C332 223 332 223 332 226 C332.66 226 333.32 226 334 226 C334.0385526 225.34051613 334.0771052 224.68103226 334.11682606 224.00156403 C334.77356371 214.61210747 336.3104252 205.44287138 337.89916992 196.17773438 C338.19858916 194.40915645 338.4975311 192.64049766 338.79603577 190.87176514 C339.43562103 187.08680007 340.07809212 183.30234059 340.72273827 179.51823425 C341.74142487 173.53563756 342.75076872 167.55148775 343.75837708 161.5670166 C346.62341325 144.55832543 349.49789697 127.55125282 352.38842773 110.546875 C353.98780499 101.13759765 355.57794827 91.72680801 357.15785867 82.31424189 C358.15740138 76.36249712 359.16837048 70.41284215 360.18773115 64.46446133 C360.81757017 60.7727323 361.43657842 57.07924969 362.05246544 53.38516998 C362.34061159 51.67030525 362.63323515 49.95618608 362.93060684 48.24289703 C363.33515418 45.90834378 363.72370843 43.5716717 364.10832214 41.23376465 C364.23019416 40.55323076 364.35206617 39.87269687 364.47763127 39.17154074 C365.07061277 35.44652644 365.19654416 33.13845508 363 30 C361.30469384 28.0319829 359.59585946 26.13383041 357.8125 24.25 C356.81312876 23.17771047 355.81443048 22.10479335 354.81640625 21.03125 C354.33187988 20.51175781 353.84735352 19.99226563 353.34814453 19.45703125 C351.05601092 16.97976696 348.84302154 14.43635423 346.63671875 11.8828125 C345.44461829 10.5114702 344.23666667 9.15385931 343.01953125 7.8046875 C342.37371094 7.08539063 341.72789062 6.36609375 341.0625 5.625 C340.47597656 4.97789062 339.88945313 4.33078125 339.28515625 3.6640625 C338 2 338 2 338 0 C390.14 0 442.28 0 496 0 C493.95543566 4.08912868 491.54342704 6.64523484 488.3125 9.75 C484.22934703 13.7458128 480.30696409 17.7695433 476.65625 22.171875 C475 24 475 24 472.90625 25.703125 C468.03570533 29.76191223 466.46756705 32.94305804 465.43458557 39.22395325 C465.31514762 39.92703765 465.19570968 40.63012205 465.0726524 41.35451204 C464.70064351 43.56757293 464.34922304 45.78324174 464 48 C463.77775309 49.35385438 463.55465378 50.70756915 463.33064079 52.06113243 C462.6290966 56.34272158 461.9622182 60.62944783 461.29663086 64.91674805 C461.03849293 66.5674312 460.78013989 68.21808072 460.52159405 69.86870003 C459.81593496 74.37781345 459.1132979 78.88739318 458.41117716 83.39705873 C457.64410308 88.32029865 456.87415813 93.24308974 456.10458374 98.16593933 C454.75844196 106.77954636 453.41409849 115.39343253 452.07095337 124.00750732 C450.08948821 136.71529686 448.10524629 149.42265168 446.12038982 162.1299119 C442.87634046 182.89910028 439.63431229 203.66860366 436.3935066 224.4382984 C431.6951295 254.5492517 426.9934612 284.65969036 422.2907545 314.76996773 C420.69641775 324.97814043 419.10223133 335.18633659 417.50813293 345.39454651 C417.28010429 346.85477896 417.05207554 348.3150114 416.82404667 349.77524382 C416.36794244 352.69600817 415.91183843 355.61677256 415.45573461 358.53753698 C415.34286544 359.26032004 415.22999626 359.9831031 415.11370681 360.72778867 C414.88574546 362.1875911 414.65778441 363.64739358 414.42982365 365.10719611 C411.81782488 381.83375047 409.20557451 398.56026546 406.59249878 415.28665161 C404.05024285 431.55975146 401.50836525 447.83291036 398.96711615 464.10616747 C398.64515459 466.16788337 398.32318292 468.2295977 398.00121093 470.29131198 C392.90986194 502.89386349 387.82943329 535.49806083 382.78389305 568.10773695 C381.8196759 574.33944514 380.854387 580.57098632 379.88825989 586.80239868 C379.75864343 587.63848195 379.62902697 588.47456522 379.49548274 589.33598435 C378.98937043 592.60059614 378.48325059 595.86520675 377.97699463 599.12979627 C376.58525205 608.10500469 375.19795424 617.08086879 373.81934315 626.05810404 C372.91211077 631.96363679 371.99779303 637.86804664 371.08049965 643.77202606 C370.72030545 646.09896829 370.36270973 648.42631454 370.00798607 650.75409698 C369.53875581 653.83210862 369.0606415 656.90860415 368.58007812 659.98486328 C368.44742711 660.87061979 368.3147761 661.7563763 368.17810535 662.66897392 C367.58939617 666.38074788 367.11258787 668.83111819 365 672 C356.47115394 647.4113979 348.23474997 622.72939786 340.125 598 C339.88235161 597.26009701 339.63970322 596.52019402 339.38970184 595.75786972 C337.12458713 588.85014402 334.86080403 581.94198229 332.59820557 575.03343201 C329.08111829 564.29487574 325.55717433 553.55859287 322.02734375 542.82421875 C321.78178364 542.0774588 321.53622353 541.33069885 321.2832222 540.56130981 C320.04156011 536.78552208 318.79975104 533.0097827 317.55786133 529.23406982 C315.29898327 522.36630795 313.04101042 515.49824844 310.78294754 508.63021851 C310.02746862 506.33241103 309.27196291 504.03461237 308.51644897 501.73681641 C305.27951911 491.89207456 302.04308711 482.04716914 298.80696487 472.20216179 C292.80970002 453.95715639 286.81126538 435.7125359 280.81168365 417.46829224 C279.97589679 414.92670327 279.14013768 412.38510518 278.30438232 409.84350586 C275.08117133 400.04158319 271.85748676 390.23981651 268.63289261 380.43834877 C267.22727539 376.16583148 265.82181031 371.89326433 264.41680908 367.62054443 C257.98656287 348.06620724 251.53081803 328.52102154 245 309 C244.78354324 309.62875534 244.56708649 310.25751068 244.34407043 310.90531921 C243.67415903 312.85125234 243.00424729 314.79718535 242.33433533 316.74311829 C241.5248135 319.09458842 240.71529415 321.4460594 239.90577698 323.79753113 C237.82727015 329.83513552 235.74873977 335.8727318 233.67012024 341.91029739 C232.44543101 345.46753728 231.22075827 349.02478285 229.99609375 352.58203125 C229.74744316 353.30427887 229.49879257 354.02652649 229.24260712 354.7706604 C225.91282186 364.44267804 222.58378232 374.11495196 219.25548935 383.78748322 C217.2955143 389.48338687 215.33531362 395.17921286 213.375 400.875 C213.04946892 401.8208559 213.04946892 401.8208559 212.71736145 402.78582001 C205.95951092 422.42077855 199.18486093 442.04988963 192.39984131 461.67547607 C185.67651336 481.12466342 178.98269995 500.58389486 172.29713821 520.04608536 C165.71614968 539.20365815 159.11982225 558.35580098 152.5 577.5 C145.26994414 598.40922079 138.06608777 619.32735192 130.875 640.25 C130.37980186 641.69067398 129.8846033 643.13134781 129.3894043 644.57202148 C128.22389357 647.96295555 127.05859046 651.35396089 125.89348221 654.74503326 C125.2565508 656.59882065 124.61953311 658.45257839 123.98251343 660.30633545 C123.60269318 661.41212952 123.22287292 662.51792358 122.83154297 663.65722656 C122.50024384 664.62162659 122.1689447 665.58602661 121.8276062 666.57965088 C121.21069575 668.38381651 120.60295871 670.19112386 120 672 C119.34 672 118.68 672 118 672 C106.38476877 588.58763237 94.83353005 505.16640849 83.30402279 421.74215412 C82.89701203 418.79716749 82.48999682 415.85218147 82.08297729 412.90719604 C81.98190284 412.17587205 81.88082838 411.44454806 81.77669106 410.69106274 C80.23848917 399.56161267 78.69945823 388.43227745 77.15994263 377.30300903 C74.68489335 359.41049995 72.21086533 341.51784992 69.73828125 323.625 C69.63625 322.88667288 69.53421876 322.14834576 69.42909566 321.3876451 C63.78718594 280.56029984 58.17648279 239.72883421 52.61026788 198.8910991 C51.36089326 189.7251014 50.10970207 180.55935285 48.8572998 171.39376831 C48.6849194 170.13210386 48.512539 168.8704394 48.33493495 167.57054269 C47.65024351 162.55933096 46.96553185 157.548122 46.28061342 152.53694129 C44.31161128 138.12988004 42.34973351 123.72189183 40.40001386 109.31220794 C39.20008688 100.44780641 37.99234533 91.58449299 36.7782889 82.72201562 C36.08511647 77.65959677 35.39579994 72.59672837 34.71663475 67.53240967 C34.09983786 62.93316578 33.47280085 58.33544289 32.83737445 53.73873687 C32.6099724 52.07988949 32.38644845 50.42050502 32.16714978 48.76056695 C31.86986752 46.51442675 31.5587231 44.27063488 31.24397278 42.02688599 C31.07486295 40.7810631 30.90575312 39.53524021 30.73151875 38.25166512 C29.67403739 33.55106757 27.54197278 30.26248637 24.109375 26.94921875 C23.56812988 26.4195752 23.02688477 25.88993164 22.46923828 25.34423828 C21.90188965 24.79751465 21.33454102 24.25079102 20.75 23.6875 C16.50125192 19.52314084 12.4100304 15.32809361 8.56640625 10.78125 C6.2841536 8.18597017 3.79576278 5.81797361 1.28515625 3.4453125 C0 2 0 2 0 0 Z " fill="#FEFEFE" transform="translate(264,176)"/>
<path d="M0 0 C51.48 0 102.96 0 156 0 C149.3982893 8.80228094 149.3982893 8.80228094 143.91796875 12.30859375 C136.52549399 17.65212665 127.20323575 24.66199832 125.62925911 34.26098442 C125.50761718 40.57027095 126.89286945 46.70178581 128.12109375 52.859375 C128.49046366 54.97615171 128.85240433 57.09423555 129.20767212 59.21342468 C129.99944453 63.90473389 130.82246608 68.58922591 131.66213989 73.27218628 C133.11510312 81.50956218 134.36138907 89.7716815 135.57397461 98.04711914 C135.68197171 98.78309196 135.78996882 99.51906479 135.90123856 100.27733982 C136.34467991 103.30146968 136.7873712 106.32570742 137.22870237 109.350146 C138.3574893 117.08096921 139.51629367 124.80720013 140.67862904 132.53303993 C141.26825254 136.45233703 141.8566954 140.37181142 142.4453125 144.29125977 C142.62120866 145.46212652 142.62120866 145.46212652 142.80065829 146.65664715 C143.76993361 153.10958738 144.73637174 159.56295047 145.70224845 166.01640016 C146.647043 172.32844065 147.59334875 178.64025325 148.54091179 184.95187873 C149.10114422 188.68357792 149.66084416 192.41535481 150.2191124 196.1473484 C150.83379565 200.25587584 151.45164345 204.36392118 152.06982422 208.47192383 C152.25159714 209.68966492 152.43337006 210.90740601 152.62065125 212.16204834 C152.78860703 213.27471573 152.95656281 214.38738312 153.12960815 215.5337677 C153.3468797 216.98138599 153.3468797 216.98138599 153.56854057 218.45824909 C153.94554276 220.67918946 154.41577485 222.8257298 155 225 C162.81421425 206.0549275 170.59760973 187.09872572 178.1875 168.0625 C185.68763472 149.25404425 193.24445391 130.46870592 200.8125 111.6875 C201.119706 110.92510262 201.426912 110.16270523 201.74342728 109.3772049 C204.57216252 102.3571479 207.40110358 95.33717388 210.23042297 88.31735229 C214.42639425 77.90650353 218.61980241 67.49462541 222.81171989 57.08214378 C224.68398734 52.43179235 226.55669918 47.78161986 228.4294405 43.13145924 C229.91725307 39.43702318 231.4048084 35.74248401 232.89175415 32.04769897 C234.27702374 28.60559678 235.66302656 25.16379073 237.04958153 21.72220612 C237.79492088 19.87163743 238.53948014 18.02075461 239.28401184 16.16986084 C241.46660467 10.75420161 243.66749799 5.35294202 246 0 C249.56845704 2.75850462 250.62535812 6.7460032 252.08984375 10.8359375 C252.38600586 11.64111816 252.68216797 12.44629883 252.98730469 13.27587891 C253.63492438 15.03911232 254.27879068 16.80372769 254.91940308 18.56951904 C256.31921023 22.42684562 257.73765307 26.27723435 259.15516663 30.12808228 C259.91526602 32.19317053 260.67447135 34.25858806 261.43284607 36.3243103 C265.85883029 48.36970967 270.39776049 60.37212109 274.9375 72.375 C275.79078126 74.63326634 276.64397116 76.8915672 277.49707031 79.14990234 C279.1856252 83.61935733 280.87476208 88.08859161 282.56445312 92.55761719 C284.86193953 98.63428905 287.15783056 104.71156239 289.453125 110.7890625 C291.90317971 117.2762227 294.35368254 123.76321303 296.80500793 130.24989319 C299.6305641 137.72689501 302.45491444 145.20434798 305.27630615 152.68292236 C306.73973577 156.56188169 308.20367195 160.44064973 309.66766357 164.31939697 C310.38390763 166.21738515 311.09993469 168.11545522 311.81573486 170.01361084 C315.49898781 179.78008656 319.19795945 189.53976652 322.95703125 199.27734375 C323.42110886 200.48160255 323.42110886 200.48160255 323.89456177 201.71018982 C325.33790702 205.45531833 326.78574114 209.19855937 328.24316406 212.93823242 C328.74695407 214.24259497 329.25054741 215.5470335 329.75390625 216.8515625 C330.19033447 217.97385254 330.6267627 219.09614258 331.07641602 220.25244141 C332 223 332 223 332 226 C332.66 226 333.32 226 334 226 C334.0385526 225.34051613 334.0771052 224.68103226 334.11682606 224.00156403 C334.77356371 214.61210747 336.3104252 205.44287138 337.89916992 196.17773438 C338.19858916 194.40915645 338.4975311 192.64049766 338.79603577 190.87176514 C339.43562103 187.08680007 340.07809212 183.30234059 340.72273827 179.51823425 C341.74142487 173.53563756 342.75076872 167.55148775 343.75837708 161.5670166 C346.62341325 144.55832543 349.49789697 127.55125282 352.38842773 110.546875 C353.98780499 101.13759765 355.57794827 91.72680801 357.15785867 82.31424189 C358.15740138 76.36249712 359.16837048 70.41284215 360.18773115 64.46446133 C360.81757017 60.7727323 361.43657842 57.07924969 362.05246544 53.38516998 C362.34061159 51.67030525 362.63323515 49.95618608 362.93060684 48.24289703 C363.33515418 45.90834378 363.72370843 43.5716717 364.10832214 41.23376465 C364.23019416 40.55323076 364.35206617 39.87269687 364.47763127 39.17154074 C365.07061277 35.44652644 365.19654416 33.13845508 363 30 C361.30469384 28.0319829 359.59585946 26.13383041 357.8125 24.25 C356.81312876 23.17771047 355.81443048 22.10479335 354.81640625 21.03125 C354.33187988 20.51175781 353.84735352 19.99226563 353.34814453 19.45703125 C351.05601092 16.97976696 348.84302154 14.43635423 346.63671875 11.8828125 C345.44461829 10.5114702 344.23666667 9.15385931 343.01953125 7.8046875 C342.37371094 7.08539063 341.72789062 6.36609375 341.0625 5.625 C340.47597656 4.97789062 339.88945313 4.33078125 339.28515625 3.6640625 C338 2 338 2 338 0 C390.14 0 442.28 0 496 0 C493.95543566 4.08912868 491.54342704 6.64523484 488.3125 9.75 C484.22934703 13.7458128 480.30696409 17.7695433 476.65625 22.171875 C475 24 475 24 472.90625 25.703125 C468.03570533 29.76191223 466.46756705 32.94305804 465.43458557 39.22395325 C465.31514762 39.92703765 465.19570968 40.63012205 465.0726524 41.35451204 C464.70064351 43.56757293 464.34922304 45.78324174 464 48 C463.77775309 49.35385438 463.55465378 50.70756915 463.33064079 52.06113243 C462.6290966 56.34272158 461.9622182 60.62944783 461.29663086 64.91674805 C461.03849293 66.5674312 460.78013989 68.21808072 460.52159405 69.86870003 C459.81593496 74.37781345 459.1132979 78.88739318 458.41117716 83.39705873 C457.64410308 88.32029865 456.87415813 93.24308974 456.10458374 98.16593933 C454.75844196 106.77954636 453.41409849 115.39343253 452.07095337 124.00750732 C450.08948821 136.71529686 448.10524629 149.42265168 446.12038982 162.1299119 C442.87634046 182.89910028 439.63431229 203.66860366 436.3935066 224.4382984 C431.6951295 254.5492517 426.9934612 284.65969036 422.2907545 314.76996773 C420.69641775 324.97814043 419.10223133 335.18633659 417.50813293 345.39454651 C417.28010429 346.85477896 417.05207554 348.3150114 416.82404667 349.77524382 C416.36794244 352.69600817 415.91183843 355.61677256 415.45573461 358.53753698 C415.34286544 359.26032004 415.22999626 359.9831031 415.11370681 360.72778867 C414.88574546 362.1875911 414.65778441 363.64739358 414.42982365 365.10719611 C411.81782488 381.83375047 409.20557451 398.56026546 406.59249878 415.28665161 C404.05024285 431.55975146 401.50836525 447.83291036 398.96711615 464.10616747 C398.64515459 466.16788337 398.32318292 468.2295977 398.00121093 470.29131198 C392.90986194 502.89386349 387.82943329 535.49806083 382.78389305 568.10773695 C381.8196759 574.33944514 380.854387 580.57098632 379.88825989 586.80239868 C379.75864343 587.63848195 379.62902697 588.47456522 379.49548274 589.33598435 C378.98937043 592.60059614 378.48325059 595.86520675 377.97699463 599.12979627 C376.58525205 608.10500469 375.19795424 617.08086879 373.81934315 626.05810404 C372.91211077 631.96363679 371.99779303 637.86804664 371.08049965 643.77202606 C370.72030545 646.09896829 370.36270973 648.42631454 370.00798607 650.75409698 C369.53875581 653.83210862 369.0606415 656.90860415 368.58007812 659.98486328 C368.44742711 660.87061979 368.3147761 661.7563763 368.17810535 662.66897392 C367.58939617 666.38074788 367.11258787 668.83111819 365 672 C356.47115394 647.4113979 348.23474997 622.72939786 340.125 598 C339.88235161 597.26009701 339.63970322 596.52019402 339.38970184 595.75786972 C337.12458713 588.85014402 334.86080403 581.94198229 332.59820557 575.03343201 C329.08111829 564.29487574 325.55717433 553.55859287 322.02734375 542.82421875 C321.78178364 542.0774588 321.53622353 541.33069885 321.2832222 540.56130981 C320.04156011 536.78552208 318.79975104 533.0097827 317.55786133 529.23406982 C315.29898327 522.36630795 313.04101042 515.49824844 310.78294754 508.63021851 C310.02746862 506.33241103 309.27196291 504.03461237 308.51644897 501.73681641 C305.27951911 491.89207456 302.04308711 482.04716914 298.80696487 472.20216179 C292.80970002 453.95715639 286.81126538 435.7125359 280.81168365 417.46829224 C279.97589679 414.92670327 279.14013768 412.38510518 278.30438232 409.84350586 C275.08117133 400.04158319 271.85748676 390.23981651 268.63289261 380.43834877 C267.22727539 376.16583148 265.82181031 371.89326433 264.41680908 367.62054443 C257.98656287 348.06620724 251.53081803 328.52102154 245 309 C244.78354324 309.62875534 244.56708649 310.25751068 244.34407043 310.90531921 C243.67415903 312.85125234 243.00424729 314.79718535 242.33433533 316.74311829 C241.5248135 319.09458842 240.71529415 321.4460594 239.90577698 323.79753113 C237.82727015 329.83513552 235.74873977 335.8727318 233.67012024 341.91029739 C232.44543101 345.46753728 231.22075827 349.02478285 229.99609375 352.58203125 C229.74744316 353.30427887 229.49879257 354.02652649 229.24260712 354.7706604 C225.91282186 364.44267804 222.58378232 374.11495196 219.25548935 383.78748322 C217.2955143 389.48338687 215.33531362 395.17921286 213.375 400.875 C213.04946892 401.8208559 213.04946892 401.8208559 212.71736145 402.78582001 C205.95951092 422.42077855 199.18486093 442.04988963 192.39984131 461.67547607 C185.67651336 481.12466342 178.98269995 500.58389486 172.29713821 520.04608536 C165.71614968 539.20365815 159.11982225 558.35580098 152.5 577.5 C145.26994414 598.40922079 138.06608777 619.32735192 130.875 640.25 C130.37980186 641.69067398 129.8846033 643.13134781 129.3894043 644.57202148 C128.22389357 647.96295555 127.05859046 651.35396089 125.89348221 654.74503326 C125.2565508 656.59882065 124.61953311 658.45257839 123.98251343 660.30633545 C123.60269318 661.41212952 123.22287292 662.51792358 122.83154297 663.65722656 C122.50024384 664.62162659 122.1689447 665.58602661 121.8276062 666.57965088 C121.21069575 668.38381651 120.60295871 670.19112386 120 672 C119.34 672 118.68 672 118 672 C106.38476877 588.58763237 94.83353005 505.16640849 83.30402279 421.74215412 C82.89701203 418.79716749 82.48999682 415.85218147 82.08297729 412.90719604 C81.98190284 412.17587205 81.88082838 411.44454806 81.77669106 410.69106274 C80.23848917 399.56161267 78.69945823 388.43227745 77.15994263 377.30300903 C74.68489335 359.41049995 72.21086533 341.51784992 69.73828125 323.625 C69.63625 322.88667288 69.53421876 322.14834576 69.42909566 321.3876451 C63.78718594 280.56029984 58.17648279 239.72883421 52.61026788 198.8910991 C51.36089326 189.7251014 50.10970207 180.55935285 48.8572998 171.39376831 C48.6849194 170.13210386 48.512539 168.8704394 48.33493495 167.57054269 C47.65024351 162.55933096 46.96553185 157.548122 46.28061342 152.53694129 C44.31161128 138.12988004 42.34973351 123.72189183 40.40001386 109.31220794 C39.20008688 100.44780641 37.99234533 91.58449299 36.7782889 82.72201562 C36.08511647 77.65959677 35.39579994 72.59672837 34.71663475 67.53240967 C34.09983786 62.93316578 33.47280085 58.33544289 32.83737445 53.73873687 C32.6099724 52.07988949 32.38644845 50.42050502 32.16714978 48.76056695 C31.86986752 46.51442675 31.5587231 44.27063488 31.24397278 42.02688599 C31.07486295 40.7810631 30.90575312 39.53524021 30.73151875 38.25166512 C29.67403739 33.55106757 27.54197278 30.26248637 24.109375 26.94921875 C23.56812988 26.4195752 23.02688477 25.88993164 22.46923828 25.34423828 C21.90188965 24.79751465 21.33454102 24.25079102 20.75 23.6875 C16.50125192 19.52314084 12.4100304 15.32809361 8.56640625 10.78125 C6.2841536 8.18597017 3.79576278 5.81797361 1.28515625 3.4453125 C0 2 0 2 0 0 Z M6 3 C11.00814663 9.8491036 11.00814663 9.8491036 16.8203125 15.13671875 C27.2187003 23.8793185 33.55233666 30.97668147 35 44.8125 C35.31508196 48.5598316 35.55824189 52.3004402 35.74902344 56.05615234 C36.14506642 62.27957483 37.00643223 68.43002345 37.85253906 74.6055603 C38.28200884 77.78872605 38.67115995 80.97697319 39.0703125 84.1640625 C39.74363627 89.34538421 40.60033764 94.46201816 41.57128906 99.59472656 C42.16114262 102.90408716 42.4950325 106.216881 42.8125 109.5625 C43.73268481 118.51797605 45.04617304 127.41078825 46.375 136.3125 C46.81927729 139.29162697 47.26340095 142.27077661 47.70703125 145.25 C47.87215714 146.35882538 47.87215714 146.35882538 48.0406189 147.49005127 C49.62007438 158.13295297 51.06350595 168.79475582 52.51611328 179.45556641 C53.33738237 185.47130031 54.16929454 191.48556324 55 197.5 C55.33338289 199.91665983 55.66671625 202.33332649 56 204.75 C56.165 205.94625 56.33 207.1425 56.5 208.375 C58 219.25 58 219.25 58.49975586 222.87329102 C58.83388097 225.29565733 59.16802819 227.7180206 59.50219727 230.14038086 C60.32359547 236.09481835 61.14463916 242.04930422 61.96484375 248.00390625 C63.80185619 261.33706104 65.64704311 274.66905349 67.5 288 C69.51470767 302.49464929 71.51923713 316.99067487 73.51611328 331.48779297 C74.34332515 337.49196547 75.17173337 343.49597293 76 349.5 C76.33333884 351.91666591 76.66667218 354.33333257 77 356.75 C77.165 357.94625 77.33 359.1425 77.5 360.375 C87 429.25 87 429.25 87.49975586 432.87329102 C87.83388097 435.29565733 88.16802819 437.7180206 88.50219727 440.14038086 C89.32359547 446.09481835 90.14463916 452.04930422 90.96484375 458.00390625 C92.80185619 471.33706104 94.64704311 484.66905349 96.5 498 C98.51470767 512.49464929 100.51923713 526.99067487 102.51611328 541.48779297 C103.34332515 547.49196547 104.17173337 553.49597293 105 559.5 C105.33333884 561.91666591 105.66667218 564.33333257 106 566.75 C106.165 567.94625 106.33 569.1425 106.5 570.375 C107.25 575.8125 107.25 575.8125 108 581.25 C108.16508057 582.44665283 108.33016113 583.64330566 108.50024414 584.8762207 C108.83296202 587.28879101 109.16548209 589.70138861 109.49780273 592.11401367 C110.33891875 598.21859549 111.18364825 604.32263969 112.03515625 610.42578125 C113.8045965 623.13646951 115.52770247 635.8479231 117.04907227 648.59106445 C117.16049561 649.51105225 117.27191895 650.43104004 117.38671875 651.37890625 C117.48170654 652.1788501 117.57669434 652.97879395 117.67456055 653.80297852 C117.98788988 655.91824534 118.44334195 657.93674443 119 660 C119.66 660 120.32 660 121 660 C121.32468513 659.05686699 121.32468513 659.05686699 121.65592957 658.09468079 C122.32584097 656.14874766 122.99575271 654.20281465 123.66566467 652.25688171 C124.4751865 649.90541158 125.28470585 647.5539406 126.09422302 645.20246887 C128.17272985 639.16486448 130.25126023 633.1272682 132.32987976 627.08970261 C133.55456899 623.53246272 134.77924173 619.97521715 136.00390625 616.41796875 C136.25255684 615.69572113 136.50120743 614.97347351 136.75739288 614.2293396 C140.08717814 604.55732196 143.41621768 594.88504804 146.74451065 585.21251678 C148.7044857 579.51661313 150.66468638 573.82078714 152.625 568.125 C152.84202072 567.4944294 153.05904144 566.8638588 153.28263855 566.21417999 C160.04048908 546.57922145 166.81513907 526.95011037 173.60015869 507.32452393 C180.08787559 488.55691029 186.548563 469.78010539 193 451 C199.4729233 432.15754844 205.9545507 413.31819473 212.46273804 394.48788452 C213.61388919 391.15714798 214.76462924 387.82626966 215.9152832 384.49536133 C219.43238074 374.31542676 222.95194024 364.13635586 226.47875977 353.95978546 C228.36579647 348.51440391 230.25068781 343.06828248 232.13420105 337.62168121 C233.48870692 333.70528946 234.84586655 329.78983101 236.20502186 325.87505054 C237.23680512 322.90062658 238.26457871 319.92481728 239.29296875 316.94921875 C239.67006485 315.8656459 240.04716095 314.78207306 240.4356842 313.66566467 C240.77554855 312.67988937 241.1154129 311.69411407 241.46557617 310.6784668 C241.76356613 309.81843552 242.06155609 308.95840424 242.36857605 308.0723114 C243.09715533 306.04220172 243.09715533 306.04220172 243 304 C244.32 304 245.64 304 247 304 C247.26359566 305.00456238 247.26359566 305.00456238 247.53251648 306.02941895 C249.30681057 312.67705483 251.31571676 319.20224127 253.51953125 325.71875 C253.85941574 326.7332019 254.19930023 327.74765381 254.54948425 328.79284668 C255.63425826 332.02954577 256.72300591 335.26488699 257.8125 338.5 C263.15848101 354.39263746 268.41723003 370.31055566 273.59765625 386.2578125 C278.58442339 401.60811904 283.60424432 416.94704876 288.6640625 432.2734375 C288.98567163 433.24764019 289.30728077 434.22184288 289.63863564 435.22556686 C291.28751175 440.21952925 292.93709556 445.21325751 294.58709717 450.20684814 C298.10743644 460.86103274 301.62408922 471.51643453 305.140625 482.171875 C305.48689816 483.22105228 305.83317131 484.27022957 306.18993759 485.3512001 C311.93829404 502.76927564 317.66752508 520.19348539 323.375 537.625 C330.91752703 560.65961375 338.48308179 583.68657017 346.0603714 606.7097702 C346.92655404 609.34173976 347.79261001 611.97375097 348.65863037 614.60577393 C350.02481205 618.75780468 351.39132392 622.90972662 352.75810051 627.06156158 C353.26039198 628.58746753 353.76259937 630.11340115 354.26471138 631.63936615 C357.48767929 641.43368979 360.73236043 651.22048043 364 661 C365.58400854 657.96138728 366.42238994 655.42171758 366.96484375 652.02734375 C367.12533203 651.04314453 367.28582031 650.05894531 367.45117188 649.04492188 C367.61166016 648.01947266 367.77214844 646.99402344 367.9375 645.9375 C368.09412109 644.97005859 368.25074219 644.00261719 368.41210938 643.00585938 C368.94957975 639.67183003 369.47511292 636.33603328 370 633 C370.21801312 631.62472934 370.43620229 630.24948658 370.65454102 628.87426758 C372.63254375 616.40218019 374.56738563 603.92346749 376.49996948 591.4442749 C379.96317377 569.08534855 383.44270692 546.72901116 386.9375 524.375 C387.04027756 523.71757938 387.14305511 523.06015877 387.24894714 522.38281631 C388.19138323 516.35462494 389.13398618 510.32645967 390.07678223 504.29832458 C391.61190388 494.48286528 393.14608973 484.66726002 394.6796875 474.8515625 C394.79057016 474.14186687 394.90145283 473.43217125 395.01569557 472.7009697 C395.56802177 469.16582169 396.12033369 465.63067145 396.67263794 462.09552002 C397.48113324 456.92058853 398.28972048 451.7456714 399.09831238 446.570755 C399.48065294 444.12380569 399.86298742 441.67685543 400.24531555 439.22990417 C401.16476695 433.34530241 402.08426253 427.46070756 403.0038805 421.57613182 C403.45677182 418.67809152 403.90964114 415.78004778 404.36250877 412.88200378 C404.57801445 411.50295344 404.79353047 410.12390472 405.009058 408.74485779 C406.10235136 401.74943292 407.19496358 394.75390655 408.28279114 387.75762939 C409.15873057 382.13883747 410.07236297 376.53328075 411.09976196 370.94006348 C412.37704669 363.95088613 413.4114153 356.96945546 414.28125 349.91796875 C415.98503741 336.52912589 418.13781451 323.21555034 420.29815674 309.8946228 C421.52896177 302.30373324 422.74567327 294.71057828 423.9609375 287.1171875 C424.08658459 286.33250532 424.21223167 285.54782314 424.34168625 284.73936272 C427.07466261 267.65727061 429.68734541 250.55746973 432.28125 233.45379639 C435.76656602 210.47558808 439.30796471 187.50852454 443 164.5625 C443.18395325 163.41703705 443.36790649 162.2715741 443.55743408 161.09140015 C445.18767243 150.95324579 446.83238285 140.82084738 448.65234375 130.71484375 C449.83053332 124.16452391 450.77491266 117.60827719 451.5625 111 C452.28135027 104.97808856 453.14603595 99.11828745 454.52905273 93.21289062 C455.18500687 90.13068831 455.56409119 87.0397877 455.93286133 83.91186523 C456.28050985 80.99391925 456.68628145 78.08650524 457.08984375 75.17578125 C457.60741037 71.3453492 458.05519563 67.52521174 458.36767578 63.67333984 C460.01700337 43.38355218 462.24253822 29.18973814 478.12817383 15.46850586 C479.93216766 13.98325074 481.76035376 12.52639688 483.62158203 11.11352539 C486.60423355 8.64290219 486.60423355 8.64290219 490 3 C441.82 3 393.64 3 344 3 C345.61693143 6.23386286 346.62949121 7.89609296 349.01171875 10.390625 C349.60202881 11.01340332 350.19233887 11.63618164 350.80053711 12.27783203 C351.42323486 12.92864746 352.04593262 13.57946289 352.6875 14.25 C353.3172876 14.92530762 353.9470752 15.60061523 354.59594727 16.29638672 C357.17074144 19.05592695 359.73154508 21.75405528 362.515625 24.3046875 C365.27620619 26.91938432 366.93331938 28.68744353 367.13174438 32.59328651 C366.21139157 42.10186165 364.74380251 51.47446356 363.1484375 60.88818359 C362.85385855 62.65203799 362.5597852 64.41597688 362.26617432 66.17999268 C361.47372141 70.93246364 360.67432911 75.6837434 359.87366486 80.43483686 C359.0344591 85.42229625 358.2019008 90.41086504 357.36865234 95.39932251 C355.79127529 104.83674524 354.20825384 114.27321159 352.62304497 123.70932162 C350.29599325 137.56297151 347.97779807 151.41810392 345.65921021 165.27317238 C345.31659414 167.32043156 344.97397333 169.36768994 344.63134766 171.41494751 C344.46405718 172.41458861 344.2967667 173.41422971 344.12440681 174.44416296 C343.13180936 180.37426922 342.13769866 186.30411932 341.14219666 192.23373866 C340.52332537 195.92035466 339.90505666 199.60707158 339.2868576 203.29380035 C339.0005461 205.00023295 338.71393847 206.7066159 338.42700958 208.41294479 C338.03472737 210.74590345 337.64347311 213.07903239 337.25244141 215.41220093 C337.08274117 216.4188708 337.08274117 216.4188708 336.90961266 217.44587743 C336.2107951 221.62343142 335.5846397 225.80534289 335 230 C334.01 230 333.02 230 332 230 C322.34222757 204.75718148 312.77487739 179.48069891 303.25 154.1875 C302.97079712 153.44608891 302.69159424 152.70467781 302.40393066 151.94079971 C299.86930467 145.21006767 297.33495646 138.47923104 294.80084229 131.74830627 C288.9535537 116.21777034 283.09541537 100.69133453 277.23364258 85.16625977 C276.44090461 83.06657405 275.64817998 80.9668833 274.85546875 78.8671875 C274.4652504 77.83361618 274.07503204 76.80004486 273.67298889 75.7351532 C271.05896836 68.80981629 268.44903283 61.88294821 265.84124756 54.95526123 C263.98782693 50.0315994 262.13302176 45.10845921 260.27825928 40.18530273 C259.39393987 37.83704765 258.51017902 35.48858213 257.62701416 33.13989258 C256.40771667 29.89741022 255.18648388 26.65566283 253.96484375 23.4140625 C253.4272216 21.98200974 253.4272216 21.98200974 252.8787384 20.52102661 C251.03149548 15.62543615 249.1054226 10.79046241 247 6 C245.29251306 8.56123042 244.22410792 10.68502258 243.09008789 13.50976562 C242.71579147 14.43724106 242.34149506 15.36471649 241.95585632 16.32029724 C241.5489003 17.33866165 241.14194427 18.35702606 240.72265625 19.40625 C240.28907303 20.48330704 239.85548981 21.56036407 239.4087677 22.6700592 C238.20990742 25.64984306 237.01406865 28.63081909 235.81941986 31.61229324 C234.53662929 34.81148585 233.24984992 38.00907314 231.96337891 41.20678711 C230.04799748 45.96868836 228.13380741 50.7310654 226.22106934 55.49402905 C222.65032149 64.38550292 219.07137971 73.27365299 215.48828125 82.16015625 C215.21815468 82.83013138 214.94802811 83.50010651 214.66971588 84.19038391 C213.57022385 86.91735941 212.47071213 89.64432696 211.37114716 92.37127304 C208.27592449 100.04771044 205.18284382 107.72501061 202.08984375 115.40234375 C201.22262795 117.5548804 200.35540904 119.7074158 199.4881897 121.85995102 C198.89991023 123.3201272 198.31163306 124.78030431 197.72335815 126.24048233 C195.52816208 131.68920576 193.33272566 137.13783231 191.13720703 142.58642578 C188.19031358 149.89971002 185.24366775 157.21309398 182.29729843 164.52658939 C180.73290757 168.40972091 179.16843037 172.29281756 177.60369873 176.17581177 C170.37790439 194.10744199 163.167836 212.04510237 156 230 C155.01 230 154.02 230 153 230 C152.91959473 229.42668945 152.83918945 228.85337891 152.75634766 228.26269531 C150.7836112 214.20137748 150.7836112 214.20137748 148.52734375 200.18359375 C147.39471734 193.34588614 146.40958965 186.48437543 145.39111328 179.62890625 C144.76473911 175.41867086 144.13215085 171.2093712 143.5 167 C143.24996814 165.33333811 142.99996819 163.66667144 142.75 162 C142.62625 161.175 142.5025 160.35 142.375 159.5 C141.25 152 141.25 152 140.87548828 149.50268555 C140.62408328 147.82703364 140.37245377 146.15141541 140.12060547 144.47583008 C139.51530553 140.44687559 138.91320364 136.41751922 138.3203125 132.38671875 C137.22251021 124.95351976 136.093657 117.52779356 134.875 110.11328125 C132.26395476 94.22397653 129.86680895 78.32510123 127.69970703 62.36914062 C127.60185913 61.64958191 127.50401123 60.93002319 127.40319824 60.18865967 C127.21185633 58.78026232 127.0211688 57.37177589 126.83117676 55.9631958 C126.10174505 50.60361865 125.25914522 45.26697113 124.35620117 39.93408203 C123.26804719 30.97079584 123.26804719 30.97079584 126.38671875 26.83447266 C127.46936884 25.75963538 128.57089112 24.70357728 129.6875 23.6640625 C130.26459717 23.09924164 130.84169434 22.53442078 131.4362793 21.95248413 C133.27500817 20.15940033 135.13626128 18.39203983 137 16.625 C138.85825321 14.83150264 140.71165925 13.03313435 142.5637207 11.23324585 C143.71639264 10.11655971 144.87369439 9.00462999 146.03588867 7.89785767 C147.37510001 6.61696866 148.69029534 5.31104438 150 4 C150 3.67 150 3.34 150 3 C102.48 3 54.96 3 6 3 Z " fill="#C09512" transform="translate(264,176)"/>
<path d="M0 0 C0.33 0 0.66 0 1 0 C0.67 4.29 0.34 8.58 0 13 C-0.99 13.33 -1.98 13.66 -3 14 C-2.88570603 12.22844346 -2.75816963 10.45773771 -2.625 8.6875 C-2.55539062 7.70136719 -2.48578125 6.71523438 -2.4140625 5.69921875 C-2 3 -2 3 0 0 Z " fill="#BF940E" transform="translate(663,627)"/>
<path d="M0 0 C0.33 0 0.66 0 1 0 C0.67 4.29 0.34 8.58 0 13 C-0.99 13.33 -1.98 13.66 -3 14 C-2.88570603 12.22844346 -2.75816963 10.45773771 -2.625 8.6875 C-2.55539062 7.70136719 -2.48578125 6.71523438 -2.4140625 5.69921875 C-2 3 -2 3 0 0 Z " fill="#BF940E" transform="translate(668,595)"/>
<path d="M0 0 C0.33 0 0.66 0 1 0 C0.67 4.29 0.34 8.58 0 13 C-0.99 13.33 -1.98 13.66 -3 14 C-2.88570603 12.22844346 -2.75816963 10.45773771 -2.625 8.6875 C-2.55539062 7.70136719 -2.48578125 6.71523438 -2.4140625 5.69921875 C-2 3 -2 3 0 0 Z " fill="#BF940E" transform="translate(705,358)"/>
<path d="M0 0 C0.33 0 0.66 0 1 0 C0.67 4.29 0.34 8.58 0 13 C-0.99 13.33 -1.98 13.66 -3 14 C-2.88570603 12.22844346 -2.75816963 10.45773771 -2.625 8.6875 C-2.55539062 7.70136719 -2.48578125 6.71523438 -2.4140625 5.69921875 C-2 3 -2 3 0 0 Z " fill="#BF940E" transform="translate(710,326)"/>
<path d="M0 0 C0.33 0 0.66 0 1 0 C0.67 4.29 0.34 8.58 0 13 C-0.99 13.33 -1.98 13.66 -3 14 C-2.58846263 9.02906176 -2.20399168 4.55491614 0 0 Z " fill="#BE9209" transform="translate(636,800)"/>
<path d="M0 0 C0.33 0 0.66 0 1 0 C0.67 4.29 0.34 8.58 0 13 C-0.99 13.33 -1.98 13.66 -3 14 C-2.58846263 9.02906176 -2.20399168 4.55491614 0 0 Z " fill="#BE9209" transform="translate(673,563)"/>
<path d="M0 0 C0.33 0 0.66 0 1 0 C0.67 4.29 0.34 8.58 0 13 C-0.99 13.33 -1.98 13.66 -3 14 C-2.58846263 9.02906176 -2.20399168 4.55491614 0 0 Z " fill="#BE9209" transform="translate(678,531)"/>
<path d="M0 0 C0.33 0 0.66 0 1 0 C0.67 4.29 0.34 8.58 0 13 C-0.99 13.33 -1.98 13.66 -3 14 C-2.58846263 9.02906176 -2.20399168 4.55491614 0 0 Z " fill="#BE9209" transform="translate(715,294)"/>
<path d="M0 0 C0.33 0 0.66 0 1 0 C0.67 4.29 0.34 8.58 0 13 C-0.99 13.33 -1.98 13.66 -3 14 C-2.58846263 9.02906176 -2.20399168 4.55491614 0 0 Z " fill="#BE9209" transform="translate(720,262)"/>
<path d="M0 0 C0 1.98 0 3.96 0 6 C-0.99 6.33 -1.98 6.66 -3 7 C-3 5.02 -3 3.04 -3 1 C-1 0 -1 0 0 0 Z " fill="#C49B1E" transform="translate(635,813)"/>
<path d="M0 0 C0 1.98 0 3.96 0 6 C-0.99 6.33 -1.98 6.66 -3 7 C-3 5.02 -3 3.04 -3 1 C-1 0 -1 0 0 0 Z " fill="#C49C1F" transform="translate(657,672)"/>
<path d="M0 0 C0 1.98 0 3.96 0 6 C-0.99 6.33 -1.98 6.66 -3 7 C-3 5.02 -3 3.04 -3 1 C-1 0 -1 0 0 0 Z " fill="#C49B1F" transform="translate(662,640)"/>
<path d="M0 0 C0 1.98 0 3.96 0 6 C-0.99 6.33 -1.98 6.66 -3 7 C-3 5.02 -3 3.04 -3 1 C-1 0 -1 0 0 0 Z " fill="#C49B1F" transform="translate(667,608)"/>
<path d="M0 0 C0 1.98 0 3.96 0 6 C-0.99 6.33 -1.98 6.66 -3 7 C-3 5.02 -3 3.04 -3 1 C-1 0 -1 0 0 0 Z " fill="#C49B1E" transform="translate(672,576)"/>
<path d="M0 0 C0 1.98 0 3.96 0 6 C-0.99 6.33 -1.98 6.66 -3 7 C-3 5.02 -3 3.04 -3 1 C-1 0 -1 0 0 0 Z " fill="#C49B1E" transform="translate(677,544)"/>
<path d="M0 0 C0 1.98 0 3.96 0 6 C-0.99 6.33 -1.98 6.66 -3 7 C-3 5.02 -3 3.04 -3 1 C-1 0 -1 0 0 0 Z " fill="#C49C1F" transform="translate(699,403)"/>
<path d="M0 0 C0 1.98 0 3.96 0 6 C-0.99 6.33 -1.98 6.66 -3 7 C-3 5.02 -3 3.04 -3 1 C-1 0 -1 0 0 0 Z " fill="#C49B1F" transform="translate(704,371)"/>
<path d="M0 0 C0 1.98 0 3.96 0 6 C-0.99 6.33 -1.98 6.66 -3 7 C-3 5.02 -3 3.04 -3 1 C-1 0 -1 0 0 0 Z " fill="#C49B1F" transform="translate(709,339)"/>
<path d="M0 0 C0 1.98 0 3.96 0 6 C-0.99 6.33 -1.98 6.66 -3 7 C-3 5.02 -3 3.04 -3 1 C-1 0 -1 0 0 0 Z " fill="#C49B1E" transform="translate(714,307)"/>
<path d="M0 0 C0 1.98 0 3.96 0 6 C-0.99 6.33 -1.98 6.66 -3 7 C-3 5.02 -3 3.04 -3 1 C-1 0 -1 0 0 0 Z " fill="#C49B1E" transform="translate(719,275)"/>
</svg>
