<?xml version="1.0" encoding="UTF-8"?>
<svg version="1.1" xmlns="http://www.w3.org/2000/svg" width="192" height="192">
<path d="M0 0 C0.82062424 -0.00428513 1.64124847 -0.00857025 2.48674011 -0.01298523 C4.22576988 -0.0187191 5.96482363 -0.01923574 7.70385742 -0.01489258 C10.30887378 -0.01177452 12.91270555 -0.03505501 15.51757812 -0.06054688 C36.85993611 -0.14218681 56.15215432 3.60267702 72.29296875 18.61328125 C84.16796772 31.13092722 88.10337155 47.69624056 87.78125 64.48046875 C86.89136521 78.74780193 81.7028851 94.11798887 71.5 104.57421875 C54.13716999 119.89232426 35.50281721 123.85767095 13.07836914 123.69189453 C10.4521243 123.67560545 7.82737447 123.6919441 5.20117188 123.7109375 C3.51171539 123.70895813 1.82225983 123.7051208 0.1328125 123.69921875 C-0.64224136 123.70529144 -1.41729523 123.71136414 -2.21583557 123.71762085 C-6.98701885 123.65597842 -10.37170671 123.02381711 -14.45703125 120.30078125 C-16.29484624 117.37875201 -16.708876 115.1373265 -16.71772766 111.71534729 C-16.72481247 110.79993164 -16.73189728 109.88451599 -16.73919678 108.94136047 C-16.73671936 107.9443663 -16.73424194 106.94737213 -16.73168945 105.92016602 C-16.73680038 104.86447418 -16.74191132 103.80878235 -16.74717712 102.72109985 C-16.76108808 99.22807155 -16.76011523 95.73524022 -16.7578125 92.2421875 C-16.76169851 89.81607489 -16.76603299 87.38996297 -16.77079773 84.96385193 C-16.77826312 79.87716466 -16.77796626 74.7905468 -16.77270508 69.70385742 C-16.76690919 63.18235973 -16.78384307 56.66114592 -16.80704975 50.13969517 C-16.82177444 45.12886389 -16.82266051 40.11810119 -16.81954002 35.10725212 C-16.82005384 32.70267105 -16.82530286 30.2980862 -16.83535194 27.89352608 C-16.8476746 24.53242616 -16.84094936 21.1718819 -16.8293457 17.81079102 C-16.83698944 16.81582108 -16.84463318 15.82085114 -16.85250854 14.79573059 C-16.81470808 9.84731641 -16.78002451 6.26772204 -13.45703125 2.30078125 C-9.25878929 -0.21493561 -4.76128284 -0.00558434 0 0 Z M9.54296875 24.30078125 C9.54296875 49.05078125 9.54296875 73.80078125 9.54296875 99.30078125 C32.35257714 99.66121639 32.35257714 99.66121639 50.23046875 88.98828125 C58.27501751 79.63921107 61.17417263 69.7587927 60.82421875 57.4375 C59.88456472 46.95774737 55.46315395 38.37243179 47.48046875 31.48828125 C35.65082961 23.06651828 24.23509199 24.30078125 9.54296875 24.30078125 Z " fill="#B79200" transform="translate(60.45703125,33.69921875)"/>
<path d="M0 0 C1.65 0 3.3 0 5 0 C6.32 3.3 7.64 6.6 9 10 C9.474375 8.535625 9.94875 7.07125 10.4375 5.5625 C11.875 1.125 11.875 1.125 13 0 C14.65 0 16.3 0 18 0 C18.99 3.3 19.98 6.6 21 10 C21.99 6.7 22.98 3.4 24 0 C25.65 0 27.3 0 29 0 C27.9478458 17.0521542 27.9478458 17.0521542 24 21 C22.00041636 21.04080783 19.99954746 21.04254356 18 21 C17.01 18.03 16.02 15.06 15 12 C13.50596946 14.98806107 12.20689255 17.89656201 11 21 C9.02 21 7.04 21 5 21 C4.16193384 18.06377536 3.32937556 15.12617933 2.5 12.1875 C2.26152344 11.35412109 2.02304688 10.52074219 1.77734375 9.66210938 C1.43896484 8.45844727 1.43896484 8.45844727 1.09375 7.23046875 C0.88427734 6.49207764 0.67480469 5.75368652 0.45898438 4.99291992 C0 3 0 3 0 0 Z " fill="#B28E00" transform="translate(78,85)"/>
</svg>
